<svg width="16" height="16" viewBox="0 0 16 16" fill="none" xmlns="http://www.w3.org/2000/svg">
<path d="M3.79994 4.47332C3.73814 4.535 3.68911 4.60826 3.65565 4.6889C3.6222 4.76955 3.60498 4.85601 3.60498 4.94332C3.60498 5.03063 3.6222 5.11709 3.65565 5.19774C3.68911 5.27839 3.73814 5.35164 3.79994 5.41332L6.38661 7.99999L3.79994 10.5867C3.73822 10.6484 3.68926 10.7216 3.65586 10.8023C3.62246 10.8829 3.60526 10.9694 3.60526 11.0567C3.60526 11.1439 3.62246 11.2304 3.65586 11.311C3.68926 11.3917 3.73822 11.4649 3.79994 11.5267C3.86166 11.5884 3.93494 11.6373 4.01558 11.6707C4.09622 11.7041 4.18266 11.7213 4.26994 11.7213C4.35723 11.7213 4.44366 11.7041 4.52431 11.6707C4.60495 11.6373 4.67822 11.5884 4.73994 11.5267L7.79994 8.46665C7.86175 8.40498 7.91078 8.33172 7.94423 8.25107C7.97769 8.17042 7.99491 8.08397 7.99491 7.99665C7.99491 7.90934 7.97769 7.82289 7.94423 7.74224C7.91078 7.66159 7.86175 7.58833 7.79994 7.52665L4.74661 4.47332C4.48661 4.21332 4.05994 4.21332 3.79994 4.47332Z" fill="#E77900"/>
<path d="M8.1935 4.47343C8.1317 4.53511 8.08266 4.60836 8.04921 4.68901C8.01576 4.76966 7.99854 4.85612 7.99854 4.94343C7.99854 5.03074 8.01576 5.1172 8.04921 5.19785C8.08266 5.27849 8.1317 5.35175 8.1935 5.41343L10.7802 8.0001L8.1935 10.5868C8.06885 10.7114 7.99882 10.8805 7.99882 11.0568C7.99882 11.233 8.06885 11.4021 8.1935 11.5268C8.31815 11.6514 8.48721 11.7214 8.6635 11.7214C8.83978 11.7214 9.00885 11.6514 9.1335 11.5268L12.1935 8.46676C12.2553 8.40509 12.3043 8.33183 12.3378 8.25118C12.3712 8.17053 12.3885 8.08407 12.3885 7.99676C12.3885 7.90945 12.3712 7.823 12.3378 7.74235C12.3043 7.6617 12.2553 7.58844 12.1935 7.52676L9.1335 4.46676C8.88016 4.21343 8.4535 4.21343 8.1935 4.47343Z" fill="#E77900"/>
</svg>
