<svg width="20" height="20" viewBox="0 0 20 20" fill="none" xmlns="http://www.w3.org/2000/svg">
<g clip-path="url(#clip0_86_10)">
<path fill-rule="evenodd" clip-rule="evenodd" d="M9.99984 3.33325C10.7123 3.33325 11.4432 3.35159 12.1515 3.38159L12.9882 3.42159L13.789 3.46909L14.539 3.51992L15.224 3.57325C15.9674 3.63015 16.6669 3.94737 17.1994 4.46912C17.732 4.99086 18.0635 5.6837 18.1357 6.42575L18.169 6.77992L18.2315 7.53825C18.2898 8.32408 18.3332 9.18075 18.3332 9.99992C18.3332 10.8191 18.2898 11.6758 18.2315 12.4616L18.169 13.2199C18.1582 13.3416 18.1473 13.4591 18.1357 13.5741C18.0635 14.3163 17.7319 15.0092 17.1991 15.531C16.6664 16.0527 15.9667 16.3699 15.2232 16.4266L14.5398 16.4791L13.7898 16.5308L12.9882 16.5783L12.1515 16.6183C11.4347 16.6494 10.7173 16.6655 9.99984 16.6666C9.28236 16.6655 8.56498 16.6494 7.84817 16.6183L7.0115 16.5783L6.21067 16.5308L5.46067 16.4791L4.77567 16.4266C4.0323 16.3697 3.3328 16.0525 2.80023 15.5307C2.26767 15.009 1.93615 14.3161 1.864 13.5741L1.83067 13.2199L1.76817 12.4616C1.70445 11.6425 1.67054 10.8214 1.6665 9.99992C1.6665 9.18075 1.70984 8.32408 1.76817 7.53825L1.83067 6.77992C1.8415 6.65825 1.85234 6.54075 1.864 6.42575C1.93612 5.68383 2.26752 4.9911 2.79991 4.46937C3.33231 3.94764 4.03161 3.63034 4.77484 3.57325L5.459 3.51992L6.209 3.46909L7.01067 3.42159L7.84734 3.38159C8.56442 3.35045 9.28208 3.33433 9.99984 3.33325ZM8.33317 7.97909V12.0208C8.33317 12.4058 8.74984 12.6458 9.08317 12.4541L12.5832 10.4333C12.6593 10.3894 12.7226 10.3263 12.7666 10.2502C12.8106 10.1741 12.8337 10.0878 12.8337 9.99992C12.8337 9.91204 12.8106 9.82572 12.7666 9.74964C12.7226 9.67356 12.6593 9.61043 12.5832 9.56658L9.08317 7.54658C9.00714 7.50269 8.92089 7.47958 8.83309 7.4796C8.74529 7.47961 8.65905 7.50274 8.58303 7.54667C8.50701 7.59059 8.4439 7.65375 8.40004 7.72981C8.35618 7.80586 8.33311 7.89212 8.33317 7.97992V7.97909Z" fill="white"/>
</g>
<defs>
<clipPath id="clip0_86_10">
<rect width="20" height="20" fill="white"/>
</clipPath>
</defs>
</svg>
